<svg width="108" height="17" viewBox="0 0 108 17" fill="none" xmlns="http://www.w3.org/2000/svg">
<path d="M13.3106 9.17139L9.55809 15.5981L5.80565 9.17139H13.3106ZM14.3158 8.59698H4.79633L9.55809 16.7349L14.3158 8.59698Z" fill="#263238"/>
<path d="M19.8347 1.17801L23.5871 7.60475H16.0822L19.8347 1.17801ZM19.8347 0.0292358L15.0729 8.16709H24.5964L19.8347 0.0292358Z" fill="#263238"/>
<path d="M0.234009 0.0292358L4.2266 7.22719L8.58952 0.209978L0.234009 0.0292358Z" fill="#4CAF4F"/>
<path d="M9.55825 0.65979L13.7462 7.81758H5.36218L9.55825 0.65979Z" fill="#4CAF4F"/>
<path d="M14.8247 9.38025L19.0167 16.7349H10.4332L14.6944 9.38025H14.8247Z" fill="#4CAF4F"/>
<path d="M15.7322 8.93439L19.8347 16.1765L23.9941 8.93439H15.7322Z" fill="#4CAF4F"/>
<path d="M42.0209 1.19098V15.3655H39.4324L33.2657 6.44413H33.1618V15.3655H30.165V1.19098H32.795L38.9133 10.1054H39.0379V1.19098H42.0209Z" fill="#263238"/>
<path d="M49.2864 15.5731C48.1928 15.5731 47.2516 15.3516 46.4625 14.9087C45.6781 14.4611 45.0737 13.829 44.6492 13.0123C44.2247 12.191 44.0125 11.2197 44.0125 10.0985C44.0125 9.00495 44.2247 8.04522 44.6492 7.2193C45.0737 6.39337 45.6712 5.74971 46.4418 5.2883C47.217 4.82689 48.1259 4.59618 49.1687 4.59618C49.8701 4.59618 50.523 4.70923 51.1274 4.93532C51.7365 5.1568 52.2671 5.49132 52.7193 5.93888C53.1761 6.38645 53.5313 6.94937 53.7851 7.62764C54.0389 8.3013 54.1658 9.09031 54.1658 9.99468V10.8045H45.1891V8.97727H51.3904C51.3904 8.55277 51.2981 8.17672 51.1136 7.84912C50.929 7.52152 50.6729 7.26544 50.3453 7.08087C50.0223 6.8917 49.6463 6.79711 49.2172 6.79711C48.7696 6.79711 48.3728 6.90092 48.0267 7.10856C47.6853 7.31158 47.4177 7.58612 47.2239 7.93217C47.0301 8.27362 46.9309 8.65428 46.9263 9.07416V10.8114C46.9263 11.3374 47.0232 11.7919 47.217 12.1748C47.4154 12.5578 47.6945 12.8531 48.0544 13.0607C48.4143 13.2684 48.8411 13.3722 49.3348 13.3722C49.6624 13.3722 49.9623 13.3261 50.2346 13.2338C50.5068 13.1415 50.7398 13.0031 50.9336 12.8185C51.1274 12.6339 51.275 12.4078 51.3766 12.1402L54.1035 12.3202C53.9651 12.9754 53.6813 13.5475 53.2522 14.0366C52.8277 14.5211 52.2786 14.8995 51.605 15.1717C50.9359 15.4393 50.1631 15.5731 49.2864 15.5731Z" fill="#263238"/>
<path d="M58.3635 4.73461L60.3152 8.45126L62.3154 4.73461H65.34L62.2601 10.05L65.423 15.3655H62.4123L60.3152 11.6904L58.2527 15.3655H55.2074L58.3635 10.05L55.3182 4.73461H58.3635Z" fill="#263238"/>
<path d="M71.5136 15.5731C70.4247 15.5731 69.488 15.3424 68.7036 14.881C67.9239 14.415 67.324 13.769 66.9041 12.9431C66.4889 12.1172 66.2812 11.1667 66.2812 10.0916C66.2812 9.00265 66.4912 8.04753 66.9111 7.22622C67.3356 6.40029 67.9377 5.75663 68.7175 5.29522C69.4973 4.82919 70.4247 4.59618 71.4998 4.59618C72.4272 4.59618 73.2393 4.7646 73.936 5.10143C74.6328 5.43825 75.1841 5.9112 75.5902 6.52026C75.9962 7.12932 76.22 7.84451 76.2615 8.66582H73.4792C73.4008 8.13519 73.1932 7.70839 72.8563 7.3854C72.5241 7.0578 72.0881 6.894 71.5482 6.894C71.0914 6.894 70.6923 7.01858 70.3509 7.26774C70.0141 7.51229 69.751 7.86989 69.5619 8.34052C69.3727 8.81116 69.2781 9.381 69.2781 10.05C69.2781 10.7283 69.3704 11.3051 69.5549 11.7803C69.7441 12.2556 70.0094 12.6178 70.3509 12.867C70.6923 13.1161 71.0914 13.2407 71.5482 13.2407C71.8851 13.2407 72.1873 13.1715 72.4549 13.0331C72.7271 12.8946 72.9509 12.6939 73.1263 12.4309C73.3062 12.1633 73.4239 11.8426 73.4792 11.4689H76.2615C76.2154 12.281 75.9939 12.9961 75.5971 13.6144C75.2049 14.2281 74.6628 14.708 73.9706 15.054C73.2785 15.4001 72.4595 15.5731 71.5136 15.5731Z" fill="#263238"/>
<path d="M82.9941 15.5731C81.9005 15.5731 80.9593 15.3516 80.1703 14.9087C79.3859 14.4611 78.7814 13.829 78.3569 13.0123C77.9324 12.191 77.7202 11.2197 77.7202 10.0985C77.7202 9.00495 77.9324 8.04522 78.3569 7.2193C78.7814 6.39337 79.3789 5.74971 80.1495 5.2883C80.9247 4.82689 81.8336 4.59618 82.8764 4.59618C83.5778 4.59618 84.2307 4.70923 84.8351 4.93532C85.4442 5.1568 85.9748 5.49132 86.427 5.93888C86.8838 6.38645 87.239 6.94937 87.4928 7.62764C87.7466 8.3013 87.8735 9.09031 87.8735 9.99468V10.8045H78.8968V8.97727H85.0981C85.0981 8.55277 85.0058 8.17672 84.8213 7.84912C84.6367 7.52152 84.3806 7.26544 84.053 7.08087C83.73 6.8917 83.354 6.79711 82.9249 6.79711C82.4773 6.79711 82.0805 6.90092 81.7344 7.10856C81.393 7.31158 81.1254 7.58612 80.9316 7.93217C80.7378 8.27362 80.6386 8.65428 80.634 9.07416V10.8114C80.634 11.3374 80.7309 11.7919 80.9247 12.1748C81.1231 12.5578 81.4022 12.8531 81.7621 13.0607C82.122 13.2684 82.5488 13.3722 83.0425 13.3722C83.3701 13.3722 83.67 13.3261 83.9423 13.2338C84.2145 13.1415 84.4475 13.0031 84.6413 12.8185C84.8351 12.6339 84.9828 12.4078 85.0843 12.1402L87.8112 12.3202C87.6728 12.9754 87.389 13.5475 86.9599 14.0366C86.5354 14.5211 85.9863 14.8995 85.3127 15.1717C84.6436 15.4393 83.8708 15.5731 82.9941 15.5731Z" fill="#263238"/>
<path d="M92.746 9.21951V15.3655H89.7976V4.73461H92.6075V6.61024H92.7321C92.9674 5.99195 93.362 5.50285 93.9156 5.14295C94.4693 4.77844 95.1407 4.59618 95.9297 4.59618C96.668 4.59618 97.3116 4.75768 97.8607 5.08066C98.4098 5.40365 98.8366 5.86506 99.1411 6.46489C99.4456 7.06011 99.5979 7.77068 99.5979 8.5966V15.3655H96.6495V9.12261C96.6541 8.47202 96.488 7.96447 96.1512 7.59996C95.8143 7.23083 95.3506 7.04627 94.76 7.04627C94.3632 7.04627 94.0125 7.13163 93.708 7.30235C93.4081 7.47307 93.1728 7.72223 93.0021 8.04983C92.8359 8.37282 92.7506 8.76271 92.746 9.21951Z" fill="#263238"/>
<path d="M107.576 4.73461V6.94937H101.174V4.73461H107.576ZM102.628 2.18762H105.576V12.0987C105.576 12.3709 105.618 12.5832 105.701 12.7354C105.784 12.8831 105.899 12.9869 106.047 13.0469C106.199 13.1069 106.374 13.1369 106.573 13.1369C106.711 13.1369 106.85 13.1253 106.988 13.1023C107.126 13.0746 107.233 13.0538 107.306 13.04L107.77 15.234C107.622 15.2801 107.415 15.3332 107.147 15.3932C106.88 15.4578 106.554 15.497 106.171 15.5108C105.461 15.5385 104.838 15.4439 104.303 15.2271C103.772 15.0102 103.359 14.6734 103.064 14.2166C102.768 13.7598 102.623 13.183 102.628 12.4863V2.18762Z" fill="#263238"/>
</svg>
