<svg width="46" height="40" viewBox="0 0 46 40" fill="none" xmlns="http://www.w3.org/2000/svg">
<path d="M45.7923 26.8834C45.7923 33.8031 40.1828 39.4127 33.263 39.4127L14.4692 39.4127C12.547 39.4127 10.9888 37.8545 10.9888 35.9323L10.9888 12.266C10.9888 8.42167 14.1052 5.30526 17.9495 5.30526L42.312 5.30527C44.2341 5.30527 45.7923 6.86347 45.7923 8.78561L45.7923 26.8834Z" fill="#E8F5E9"/>
<path d="M19.2834 13.6657C19.0663 13.6657 18.8897 13.4894 18.8897 13.2719V12.6028C18.8897 12.3856 19.066 12.209 19.2834 12.209C19.5006 12.209 19.6772 12.3853 19.6772 12.6028V13.2719C19.6772 13.4894 19.5006 13.6657 19.2834 13.6657Z" fill="#103E13"/>
<path d="M17.628 13.6657C17.4108 13.6657 17.2343 13.4894 17.2343 13.2719V12.6028C17.2343 12.3856 17.4106 12.209 17.628 12.209C17.8452 12.209 18.0218 12.3853 18.0218 12.6028V13.2719C18.0215 13.4894 17.8455 13.6657 17.628 13.6657Z" fill="#103E13"/>
<path d="M15.9727 13.6657C15.7556 13.6657 15.579 13.4894 15.579 13.2719V12.6028C15.579 12.3856 15.7553 12.209 15.9727 12.209C16.1899 12.209 16.3665 12.3853 16.3665 12.6028V13.2719C16.3665 13.4894 16.1902 13.6657 15.9727 13.6657Z" fill="#103E13"/>
<path d="M19.2834 16.402C19.0663 16.402 18.8897 16.2257 18.8897 16.0083V15.3394C18.8897 15.1222 19.066 14.9457 19.2834 14.9457C19.5006 14.9457 19.6772 15.1219 19.6772 15.3394V16.0083C19.6772 16.2257 19.5006 16.402 19.2834 16.402Z" fill="#103E13"/>
<path d="M17.628 16.402C17.4108 16.402 17.2343 16.2257 17.2343 16.0083V15.3394C17.2343 15.1222 17.4106 14.9457 17.628 14.9457C17.8452 14.9457 18.0218 15.1219 18.0218 15.3394V16.0083C18.0215 16.2257 17.8455 16.402 17.628 16.402Z" fill="#103E13"/>
<path d="M15.9727 16.402C15.7556 16.402 15.579 16.2257 15.579 16.0083V15.3394C15.579 15.1222 15.7553 14.9457 15.9727 14.9457C16.1899 14.9457 16.3665 15.1219 16.3665 15.3394V16.0083C16.3665 16.2257 16.1902 16.402 15.9727 16.402Z" fill="#103E13"/>
<path d="M19.2834 19.1385C19.0663 19.1385 18.8897 18.9622 18.8897 18.7447V18.0756C18.8897 17.8584 19.066 17.6818 19.2834 17.6818C19.5006 17.6818 19.6772 17.8581 19.6772 18.0756V18.7447C19.6772 18.9622 19.5006 19.1385 19.2834 19.1385Z" fill="#103E13"/>
<path d="M17.628 19.1385C17.4108 19.1385 17.2343 18.9622 17.2343 18.7447V18.0756C17.2343 17.8584 17.4106 17.6818 17.628 17.6818C17.8452 17.6818 18.0218 17.8581 18.0218 18.0756V18.7447C18.0215 18.9622 17.8455 19.1385 17.628 19.1385Z" fill="#103E13"/>
<path d="M15.9727 19.1385C15.7556 19.1385 15.579 18.9622 15.579 18.7447V18.0756C15.579 17.8584 15.7553 17.6818 15.9727 17.6818C16.1899 17.6818 16.3665 17.8581 16.3665 18.0756V18.7447C16.3665 18.9622 16.1902 19.1385 15.9727 19.1385Z" fill="#103E13"/>
<path d="M19.2834 21.8743C19.0663 21.8743 18.8897 21.6981 18.8897 21.4806V20.8114C18.8897 20.5942 19.066 20.4177 19.2834 20.4177C19.5006 20.4177 19.6772 20.594 19.6772 20.8114V21.4806C19.6772 21.6981 19.5006 21.8743 19.2834 21.8743Z" fill="#103E13"/>
<path d="M17.628 21.8743C17.4108 21.8743 17.2343 21.6981 17.2343 21.4806V20.8114C17.2343 20.5942 17.4106 20.4177 17.628 20.4177C17.8452 20.4177 18.0218 20.594 18.0218 20.8114V21.4806C18.0215 21.6981 17.8455 21.8743 17.628 21.8743Z" fill="#103E13"/>
<path d="M15.9727 21.8743C15.7556 21.8743 15.579 21.6981 15.579 21.4806V20.8114C15.579 20.5942 15.7553 20.4177 15.9727 20.4177C16.1899 20.4177 16.3665 20.594 16.3665 20.8114V21.4806C16.3665 21.6981 16.1902 21.8743 15.9727 21.8743Z" fill="#103E13"/>
<path d="M19.2834 24.6107C19.0663 24.6107 18.8897 24.4344 18.8897 24.217V23.5481C18.8897 23.3309 19.066 23.1543 19.2834 23.1543C19.5006 23.1543 19.6772 23.3306 19.6772 23.5481V24.217C19.6772 24.4342 19.5006 24.6107 19.2834 24.6107Z" fill="#103E13"/>
<path d="M17.628 24.6107C17.4108 24.6107 17.2343 24.4344 17.2343 24.217V23.5481C17.2343 23.3309 17.4106 23.1543 17.628 23.1543C17.8452 23.1543 18.0218 23.3306 18.0218 23.5481V24.217C18.0215 24.4342 17.8455 24.6107 17.628 24.6107Z" fill="#103E13"/>
<path d="M15.9727 24.6107C15.7556 24.6107 15.579 24.4344 15.579 24.217L15.5793 23.5481C15.5793 23.3309 15.7555 23.1543 15.973 23.1543C16.1902 23.1543 16.3668 23.3306 16.3668 23.5481V24.217C16.3665 24.4342 16.1902 24.6107 15.9727 24.6107Z" fill="#103E13"/>
<path d="M4.72454 27.3339C4.72454 27.5511 4.90082 27.7276 5.11829 27.7276H29.0963C29.3135 27.7276 29.4901 27.5514 29.4901 27.3339C29.4901 27.1167 29.3138 26.9401 29.0963 26.9401H28.3684V15.6351C28.3684 15.4179 28.1922 15.2413 27.9747 15.2413L21.546 15.2416V7.09124C21.546 6.9534 21.4741 6.826 21.3565 6.7546C21.2393 6.68294 21.0927 6.67854 20.9708 6.74197L13.6618 10.5474C13.5314 10.6152 13.4501 10.7497 13.4501 10.8966V18.0158H6.3766C6.15941 18.0158 5.98285 18.1921 5.98285 18.4096V26.9402H5.11741C4.90022 26.9399 4.72421 27.1162 4.72421 27.3337L4.72454 27.3339ZM21.5461 21.2051H27.5813V26.9405L21.5461 26.9402V21.2051ZM21.5461 18.4689H27.5813V20.4179L21.5461 20.4176V18.4689ZM21.5461 16.0287H27.5813V17.682H21.5461V16.0287ZM14.2372 11.1357L20.7584 7.74026V26.9398H14.2372V11.1357ZM8.71678 23.7953C8.71678 22.9782 9.36423 22.3131 10.1602 22.3131C10.9562 22.3131 11.604 22.9779 11.604 23.7953V26.9403H8.71678V23.7953ZM6.77032 18.8032H13.45V26.9402H12.3914V23.7952C12.3914 22.5439 11.3909 21.5258 10.1602 21.5258C8.93012 21.5258 7.92958 22.5436 7.92958 23.7952V26.9402H6.77032V18.8032Z" fill="#103E13"/>
</svg>
