<svg width="35" height="34" viewBox="0 0 35 34" fill="none" xmlns="http://www.w3.org/2000/svg">
<path d="M28.7673 29.3839V26.5996C28.7673 25.1227 28.1806 23.7063 27.1363 22.662C26.092 21.6177 24.6756 21.031 23.1988 21.031H21.8066C21.4374 21.031 21.0833 20.8844 20.8222 20.6233C20.5612 20.3622 20.4145 20.0081 20.4145 19.6389V12.6782C20.4145 11.9398 20.1211 11.2316 19.599 10.7094C19.0768 10.1873 18.3687 9.89393 17.6302 9.89393C16.8918 9.89393 16.1836 10.1873 15.6614 10.7094C15.1393 11.2316 14.8459 11.9398 14.8459 12.6782V25.2075L11.5048 20.7526C11.2455 20.4068 10.9092 20.1262 10.5225 19.9329C10.1359 19.7395 9.70963 19.6389 9.27738 19.6389H8.67319C7.46899 19.6389 6.4931 20.6148 6.4931 21.819C6.4931 22.2144 6.6003 22.6028 6.80355 22.9411L10.6695 29.3839M17.6302 5.71752V4.32538V5.71752ZM25.983 14.0704H27.3752H25.983ZM7.88524 14.0704H9.27738H7.88524ZM11.147 7.58716L10.1628 6.60292L11.147 7.58716ZM24.1134 7.58716L25.0976 6.60292L24.1134 7.58716Z" fill="#4CAF4F"/>
<path d="M28.7673 29.3839V26.5996C28.7673 25.1227 28.1806 23.7063 27.1363 22.662C26.092 21.6177 24.6756 21.031 23.1988 21.031H21.8066C21.4374 21.031 21.0833 20.8844 20.8222 20.6233C20.5612 20.3622 20.4145 20.0081 20.4145 19.6389V12.6782C20.4145 11.9398 20.1211 11.2316 19.599 10.7094C19.0768 10.1873 18.3687 9.89393 17.6302 9.89393V9.89393C16.8918 9.89393 16.1836 10.1873 15.6614 10.7094C15.1393 11.2316 14.8459 11.9398 14.8459 12.6782V25.2075L11.5048 20.7526C11.2455 20.4068 10.9092 20.1262 10.5225 19.9329C10.1359 19.7395 9.70963 19.6389 9.27738 19.6389H8.67319C7.46899 19.6389 6.4931 20.6148 6.4931 21.819C6.4931 22.2144 6.6003 22.6028 6.80355 22.9411L10.6695 29.3839M17.6302 5.71752V4.32538M25.983 14.0704H27.3752M7.88524 14.0704H9.27738M11.147 7.58716L10.1628 6.60292M24.1134 7.58716L25.0976 6.60292" stroke="#4CAF4F" stroke-width="1.39214" stroke-linecap="round" stroke-linejoin="round"/>
</svg>
