<svg width="39" height="34" viewBox="0 0 39 34" fill="none" xmlns="http://www.w3.org/2000/svg">
<g clip-path="url(#clip0_1_2712)">
<path d="M38.5803 13.9504C38.5842 13.9214 38.5842 13.8921 38.5803 13.863C38.584 13.8394 38.584 13.8153 38.5803 13.7916L38.2966 11.7502C38.2557 11.506 38.1463 11.2778 37.9807 11.091L37.932 11.0354L37.843 10.948L32.9332 6.80181L33.0709 6.93685C32.9582 6.80467 32.8168 6.69895 32.6569 6.62747C32.4971 6.55599 32.3229 6.52057 32.1473 6.52381H30.6565C30.4141 6.5191 30.1772 6.59466 29.984 6.73827C29.7812 6.59553 29.537 6.52036 29.2873 6.52381H27.7965C27.601 6.5207 27.4081 6.56827 27.2374 6.66173C27.0667 6.75518 26.9242 6.89119 26.8243 7.05598C26.6703 7.29136 26.6125 7.57496 26.6622 7.85028L26.8486 9.13702C26.7251 9.06841 26.5854 9.03281 26.4435 9.03377H19.2246C18.9656 9.03537 18.7126 9.10979 18.4954 9.24822C18.2855 9.37707 18.1169 9.56158 18.0093 9.78039L17.4503 9.31177C17.2303 9.11218 16.9398 9.004 16.6401 9.00994H5.31357C5.05365 9.01458 4.7995 9.08577 4.57631 9.21645C4.27097 9.39167 4.04719 9.67655 3.95245 10.0107L0.355175 21.806C0.287961 22.0003 0.281349 22.2099 0.336186 22.408C0.391022 22.606 0.504824 22.7836 0.663053 22.918C0.704282 22.9522 0.747573 22.9841 0.792687 23.0132C0.792687 23.0132 0.719758 22.9656 0.679248 22.9259L5.58906 27.08C5.79675 27.2675 6.0683 27.3723 6.35059 27.3739H17.7663C18.027 27.3673 18.2813 27.2933 18.5036 27.1594C18.6293 27.0921 18.7417 27.0033 18.8357 26.8973L18.8763 26.8417L18.9411 26.7623L18.9897 26.6749L19.5244 27.1277C19.7291 27.3077 19.9948 27.4067 20.2698 27.4057H31.7097C31.9702 27.3972 32.224 27.3234 32.447 27.1912C32.5699 27.1198 32.6817 27.0315 32.7792 26.9291L32.8197 26.8735L32.8845 26.7941C32.919 26.7438 32.9489 26.6907 32.9736 26.6352C33.0001 26.5871 33.0218 26.5365 33.0385 26.4843L36.3198 15.7138V15.6184C36.3238 15.5815 36.3238 15.5442 36.3198 15.5072V15.4358C36.3237 15.4121 36.3237 15.3879 36.3198 15.3642C36.3234 15.314 36.3234 15.2636 36.3198 15.2133H37.373C37.4646 15.2216 37.5569 15.2216 37.6485 15.2133H37.7214C37.7807 15.196 37.8378 15.172 37.8916 15.1419H37.9726L38.1184 15.0307L38.1832 14.983L38.2966 14.84V14.7924L38.3777 14.6573C38.3731 14.6311 38.3731 14.6042 38.3777 14.5779C38.3734 14.565 38.3734 14.5511 38.3777 14.5382C38.3949 14.4916 38.4085 14.4438 38.4182 14.3952C38.4144 14.3795 38.4144 14.3632 38.4182 14.3475C38.4142 14.3239 38.4142 14.2997 38.4182 14.2761C38.4182 14.2761 38.5803 13.9663 38.5803 13.9504Z" fill="black"/>
<path d="M16.9723 9.91546C17.0153 9.95359 17.0453 10.0037 17.0584 10.0591C17.0714 10.1145 17.0668 10.1725 17.0452 10.2252L13.4561 22.0125C13.4109 22.1412 13.3184 22.2488 13.1968 22.3143C13.0978 22.3792 12.9833 22.4176 12.8646 22.4255H1.45705C1.35963 22.4209 1.26733 22.3814 1.19778 22.3143C1.15641 22.2768 1.12737 22.228 1.11438 22.1743C1.10139 22.1206 1.10505 22.0642 1.12487 22.0125L4.72214 10.2252C4.76358 10.0949 4.85314 9.98445 4.97329 9.91546C5.07388 9.85523 5.18787 9.8198 5.30548 9.8122H16.713C16.8097 9.81312 16.9024 9.85003 16.9723 9.91546ZM11.0173 19.6376L13.1644 12.6002H7.15274L5.0138 19.6376H11.0173ZM27.8613 10.0346C27.9002 10.0789 27.9489 10.1141 28.0036 10.1375C28.0583 10.1609 28.1177 10.1719 28.1773 10.1696H29.66C29.7164 10.1702 29.772 10.1566 29.8217 10.1302C29.8713 10.1038 29.9132 10.0654 29.9435 10.0187C29.9698 9.98223 29.9885 9.94093 29.9982 9.89727C30.0079 9.85361 30.0086 9.80848 30.0002 9.76455L29.7086 7.66762C29.6808 7.57057 29.6309 7.48096 29.5628 7.4055C29.5238 7.36116 29.4752 7.326 29.4205 7.30262C29.3658 7.27924 29.3064 7.26826 29.2468 7.27048H27.7641C27.7076 7.26994 27.652 7.28351 27.6024 7.30992C27.5528 7.33632 27.5108 7.37469 27.4805 7.4214C27.4238 7.53259 27.3995 7.60408 27.4238 7.66762L27.7236 9.76455C27.739 9.86665 27.7872 9.96126 27.8613 10.0346ZM32.5686 7.65174C32.5408 7.55468 32.4909 7.46507 32.4227 7.38962C32.3854 7.34544 32.3382 7.31028 32.2848 7.28686C32.2315 7.26345 32.1733 7.2524 32.1149 7.25459H30.6241C30.5686 7.25304 30.5136 7.26625 30.4651 7.29281C30.4166 7.31938 30.3764 7.35833 30.3486 7.4055C30.2947 7.47597 30.2714 7.56449 30.2838 7.65174L30.5836 9.74866C30.6024 9.84968 30.6501 9.94336 30.7213 10.0187C30.7609 10.0622 30.8097 10.0968 30.8643 10.1201C30.9188 10.1434 30.9778 10.1549 31.0373 10.1537H32.5281C32.5835 10.1545 32.638 10.1409 32.6863 10.1144C32.7347 10.0879 32.7751 10.0495 32.8035 10.0028C32.8317 9.9673 32.8514 9.92601 32.8612 9.88204C32.8711 9.83806 32.8707 9.79249 32.8602 9.74866L32.5686 7.65174ZM26.5569 10.8289L26.411 9.79632H19.2246C19.1118 9.80241 19.0026 9.83807 18.9086 9.89957C18.849 9.93147 18.797 9.97569 18.7565 10.0292C18.7159 10.0827 18.6877 10.1441 18.6737 10.2093L18.0742 12.1792C18.0502 12.2284 18.042 12.2836 18.0507 12.3375C18.0594 12.3914 18.0845 12.4414 18.1228 12.481C18.1911 12.544 18.2803 12.5807 18.3739 12.5843H27.1079L24.9608 19.6217H16.2512C16.1389 19.6242 16.0295 19.6572 15.9353 19.717C15.8207 19.7883 15.737 19.8987 15.7003 20.0268L15.0926 21.9966C15.0728 22.0472 15.0676 22.1021 15.0776 22.1553C15.0876 22.2086 15.1124 22.2581 15.1493 22.2984C15.2155 22.3656 15.3054 22.4054 15.4005 22.4096H26.8405C26.9588 22.3996 27.0728 22.3615 27.1726 22.2984C27.2923 22.2325 27.382 22.1247 27.4238 21.9966L30.7132 11.226H27.0106C26.9519 11.2272 26.8935 11.2165 26.8392 11.1946C26.7848 11.1728 26.7357 11.1402 26.6947 11.0989C26.6277 11.0269 26.5803 10.9395 26.5569 10.8448V10.8289Z" fill="white"/>
</g>
<defs>
<clipPath id="clip0_1_2712">
<rect width="38.2838" height="20.8821" fill="white" transform="translate(0.299408 6.52361)"/>
</clipPath>
</defs>
</svg>
