<svg width="34" height="34" viewBox="0 0 34 34" fill="none" xmlns="http://www.w3.org/2000/svg">
<g clip-path="url(#clip0_1_2716)">
<path d="M31.7851 9.70096C31.7851 9.72449 31.7851 9.75391 31.779 9.77157C31.7484 10.001 31.7484 10.2305 31.7667 10.4659C31.779 10.5247 31.7913 10.5836 31.8403 10.6307C31.92 10.7189 32.0426 10.7013 32.0917 10.5954C32.1162 10.5424 32.1162 10.4894 32.1039 10.4365C32.0426 10.2129 32.0304 9.97751 32.0242 9.74803C32.0242 9.73626 32.0242 9.7186 32.0242 9.70096C32.0917 9.69507 32.153 9.68918 32.2081 9.68918C32.2511 9.6833 32.2879 9.67742 32.3185 9.65976C32.4105 9.61269 32.4105 9.51266 32.3124 9.46559C32.2756 9.44793 32.2266 9.44205 32.1837 9.44205C32.0304 9.44793 31.8771 9.44793 31.7238 9.44793C31.6687 9.44793 31.6135 9.45382 31.5583 9.4597C31.5276 9.46559 31.4908 9.46559 31.4664 9.48324C31.4234 9.50089 31.3989 9.53031 31.3989 9.5715C31.405 9.61269 31.4234 9.63623 31.4664 9.65388C31.4908 9.67153 31.5215 9.67742 31.5522 9.67742C31.6257 9.6833 31.7055 9.69507 31.7851 9.70096ZM33.4711 9.97163C33.4711 9.97751 33.4772 9.98339 33.4772 9.98339C33.5018 10.1423 33.5263 10.2953 33.5447 10.4482C33.5508 10.5012 33.5569 10.5483 33.5937 10.5895C33.6734 10.6895 33.7961 10.6777 33.8512 10.5718C33.8757 10.5189 33.8819 10.4659 33.8696 10.4071C33.8328 10.2305 33.8144 10.054 33.7776 9.88336C33.7531 9.77745 33.7225 9.67742 33.6918 9.58327C33.6734 9.52443 33.6305 9.48324 33.5569 9.47735C33.4834 9.46559 33.4282 9.50089 33.3975 9.55385C33.3608 9.60092 33.3301 9.64799 33.3056 9.70096C33.2627 9.7951 33.2259 9.88925 33.1768 9.97751C33.1707 10.001 33.1646 10.0187 33.1523 10.0364C33.1462 10.0246 33.1401 10.0187 33.1401 10.0187C33.0603 9.8716 32.9868 9.72449 32.9071 9.58327C32.8948 9.5715 32.8887 9.55973 32.8825 9.54796C32.8458 9.49501 32.8029 9.46559 32.7354 9.46559C32.6741 9.47147 32.625 9.50678 32.5944 9.55973C32.5821 9.58327 32.5821 9.60092 32.576 9.62446C32.5515 9.81275 32.5208 10.001 32.4963 10.1893C32.484 10.2953 32.4779 10.4012 32.4779 10.5071C32.4718 10.5306 32.4779 10.56 32.4902 10.5836C32.5024 10.6307 32.5392 10.6601 32.5883 10.666C32.6496 10.6718 32.6925 10.6542 32.7109 10.6071C32.7293 10.5718 32.7354 10.5424 32.7415 10.513C32.7661 10.4071 32.7844 10.307 32.8029 10.207C32.8151 10.1482 32.8212 10.1011 32.8396 10.0364C32.8519 10.0599 32.8641 10.0775 32.8764 10.0952C32.9316 10.1658 32.9868 10.2364 33.0542 10.2953C33.1217 10.3423 33.1768 10.3364 33.232 10.2835C33.2443 10.2717 33.2504 10.2658 33.2627 10.2541C33.3178 10.1717 33.3853 10.0893 33.4404 10.0069C33.4527 9.99516 33.4589 9.98339 33.4711 9.97163Z" fill="#3A3B7B"/>
<path d="M19.3449 9.81656C19.3023 9.92838 19.2941 10.0089 19.3138 10.0759C19.3355 10.167 19.3919 10.1968 19.4685 10.1736C20.1886 10.0027 21.7677 10.4878 22.3523 10.623C22.4902 10.6514 22.6023 10.4806 22.5083 10.3274C22.3709 10.1791 20.7926 9.54409 20.1903 9.50947C19.9543 9.49667 19.5322 9.43857 19.3449 9.81656Z" fill="#3A3B7B"/>
<path d="M25.5162 7.76094C25.5929 7.80346 25.6358 7.84401 25.657 7.88933C25.6885 7.94876 25.6719 7.98989 25.6189 8.01087C25.1429 8.23385 24.5095 9.19379 24.2538 9.52486C24.1918 9.60102 24.0489 9.55676 24.0273 9.43152C24.0317 9.2899 24.5932 8.24815 24.9066 7.96442C25.0297 7.85364 25.2332 7.63627 25.5162 7.76094Z" fill="#3A3B7B"/>
<path d="M21.7254 7.28839C21.8176 7.22169 21.9134 7.19832 21.9624 7.24166C22.6806 7.83116 23.0614 8.76469 23.2972 9.61931C23.3061 9.63922 23.3067 9.66779 23.2996 9.6976C23.2966 9.72308 23.2772 9.74999 23.2464 9.77081C23.2135 9.7938 23.1852 9.8008 23.1719 9.78099C22.8571 9.37008 21.0593 7.7713 21.7254 7.28839Z" fill="#3A3B7B"/>
<path d="M6.51689 17.5088C6.68901 17.3858 6.87615 17.2834 7.07417 17.204C7.28135 17.1471 7.50218 17.1565 7.70328 17.2309C7.90434 17.3052 8.07479 17.4403 8.18873 17.6158C8.29066 17.7909 8.33053 17.993 8.30239 18.1918C8.27426 18.3905 8.17962 18.575 8.03268 18.7176C7.91878 18.8333 7.78946 18.934 7.64818 19.0172C7.01846 19.4076 6.38313 19.7767 5.74783 20.1671C5.61783 20.2649 5.47993 20.3525 5.33543 20.4292C5.11565 20.5344 4.86447 20.5626 4.62533 20.5089C4.38619 20.4552 4.17413 20.3229 4.02581 20.1351C3.91494 20.002 3.82137 19.8566 3.74717 19.7018C3.1453 18.4877 2.52115 17.2788 1.94157 16.0433C1.67407 15.5084 1.45673 14.8933 1.24496 14.2996C1.15334 14.1271 1.13545 13.9271 1.19509 13.7422C1.25474 13.5572 1.38722 13.4018 1.56436 13.3092C1.74149 13.2165 1.9493 13.1938 2.14359 13.246C2.33788 13.2981 2.50332 13.4209 2.60473 13.5882C2.91644 13.9858 3.19236 14.4081 3.42952 14.8506C4.03138 15.9203 4.60539 16.99 5.18497 18.0277C5.21872 18.085 5.25593 18.1403 5.29642 18.1935C5.73265 18.0174 6.14295 17.7873 6.51689 17.5088Z" fill="#3A3B7B"/>
<path d="M12.7398 17.1357C11.3633 18.6814 9.05617 18.291 7.89702 16.3013C7.07223 14.8892 6.92734 12.5572 8.72182 11.0863C9.10501 10.7783 9.56321 10.5686 10.0537 10.4765C10.6551 10.3938 11.2684 10.4956 11.8058 10.7675C12.3433 11.0393 12.7775 11.4673 13.0464 11.9902C14.0272 13.7018 13.8878 15.8841 12.7398 17.1357ZM12.1825 13.5306C12.0363 13.11 11.7429 12.751 11.3522 12.5144C11.1311 12.3631 10.8624 12.2896 10.5914 12.3061C10.3204 12.3227 10.0636 12.4284 9.86424 12.6053C9.06734 13.2846 8.90012 14.8946 9.4797 15.852C9.55359 16.0081 9.66206 16.1468 9.79764 16.2585C9.93322 16.3702 10.0926 16.4521 10.2646 16.4984C10.4366 16.5448 10.617 16.5545 10.7934 16.5269C10.9697 16.4993 11.1376 16.4351 11.2853 16.3387C11.7173 16.0172 12.0342 15.5746 12.192 15.0724C12.3499 14.57 12.3407 14.0331 12.1659 13.536L12.1825 13.5306Z" fill="#3A3B7B"/>
<path d="M18.3572 14.2046C18.2163 14.2337 18.0707 14.2354 17.9291 14.2097C17.7875 14.1839 17.6526 14.1313 17.5325 14.0548C17.4274 13.9971 17.3369 13.9178 17.2675 13.8225C17.1982 13.7272 17.1518 13.6184 17.1315 13.5038C17.1113 13.3892 17.1177 13.2718 17.1504 13.1599C17.1831 13.048 17.2413 12.9445 17.3207 12.8567C17.4591 12.6803 17.6554 12.5541 17.878 12.4984C18.4591 12.3365 19.0573 12.2378 19.6613 12.2042C19.794 12.1894 19.9285 12.2001 20.0568 12.2359C20.1851 12.2717 20.3047 12.3316 20.4085 12.4124C20.5123 12.4931 20.5983 12.5929 20.6614 12.7059C20.7245 12.819 20.7634 12.943 20.7759 13.0707C20.95 13.6978 20.9691 14.3554 20.8316 14.9909C20.3301 17.0447 18.6025 17.7508 16.6631 17.0929C16.1187 16.917 15.6414 16.5892 15.2922 16.1515C14.8264 15.6244 14.4962 14.9997 14.3281 14.3276C14.1919 13.7291 14.2068 13.1082 14.3716 12.5164C14.5364 11.9246 14.8463 11.3792 15.2755 10.9258C15.6827 10.433 16.2113 10.0452 16.8136 9.79726C17.1942 9.59593 17.6395 9.53868 18.0619 9.6368C18.1577 9.66225 18.2447 9.71185 18.3138 9.78044C18.3829 9.84903 18.4317 9.93412 18.455 10.0269C18.4783 10.1197 18.4753 10.2167 18.4464 10.308C18.4174 10.3993 18.3636 10.4815 18.2904 10.5461C18.1512 10.667 18 10.7745 17.839 10.867C17.3435 11.1698 16.9124 11.56 16.5684 12.017C16.3429 12.3126 16.1876 12.6522 16.1134 13.0116C16.0393 13.3711 16.0481 13.7418 16.1393 14.0976C16.2657 14.5828 16.5461 15.0183 16.9417 15.3438C18.1678 16.4136 19.7616 15.3813 19.483 13.9211C19.0762 14.0174 18.7195 14.119 18.3572 14.2046Z" fill="#3A3B7B"/>
<path d="M25.8473 17.2212C24.0361 18.291 21.9742 17.2212 21.5227 14.9748C21.1939 13.3702 21.8181 11.1237 24.0027 10.2679C24.4675 10.0898 24.9716 10.0272 25.4683 10.0861C26.0651 10.1909 26.6126 10.4729 27.0335 10.8923C27.4544 11.3116 27.7276 11.8472 27.8145 12.4235C28.1823 14.3329 27.3464 16.3708 25.8473 17.2212ZM26.477 13.6216C26.4765 13.1772 26.3127 12.7473 26.0145 12.4074C25.8551 12.1972 25.6246 12.0466 25.3624 11.9812C25.1002 11.9159 24.8225 11.9398 24.5767 12.0491C23.5958 12.4555 22.9048 13.9318 23.1556 15.0176C23.1748 15.188 23.2324 15.3523 23.3246 15.4991C23.4168 15.6459 23.5414 15.7715 23.6895 15.8673C23.8375 15.9631 24.0056 16.0266 24.182 16.0536C24.3583 16.0805 24.5387 16.0701 24.7104 16.0231C25.2289 15.8493 25.6778 15.5245 25.9944 15.0939C26.3112 14.6633 26.4799 14.1486 26.477 13.6216Z" fill="#3A3B7B"/>
<path d="M29.646 17.6706C29.6187 17.8663 29.5115 18.0436 29.3479 18.1635C29.1843 18.2833 28.9779 18.336 28.7739 18.3097C28.5699 18.2835 28.3852 18.1805 28.2603 18.0235C28.1354 17.8666 28.0806 17.6684 28.108 17.4727C28.1353 17.2769 28.2426 17.0996 28.4061 16.9797C28.5697 16.8598 28.7761 16.8072 28.9801 16.8335C29.1841 16.8597 29.3688 16.9626 29.4937 17.1196C29.6186 17.2766 29.6734 17.4748 29.646 17.6706ZM29.1612 10.4552C29.2672 10.2998 29.4227 10.1815 29.6045 10.1179C29.7863 10.0542 29.9846 10.0487 30.1699 10.1021C30.3583 10.1474 30.5247 10.2534 30.6414 10.4023C30.7581 10.5513 30.8179 10.7342 30.8108 10.9205C30.7862 11.2192 30.7397 11.5159 30.6715 11.8084C30.4876 12.7979 30.3092 13.7874 30.1142 14.7662C30.025 15.1567 29.908 15.5311 29.7798 15.9269C29.7352 16.0506 29.6607 16.1624 29.5625 16.2531C29.5014 16.3214 29.4234 16.3738 29.3356 16.4054C29.2479 16.437 29.1532 16.4469 29.0604 16.4341C28.9677 16.4213 28.8797 16.3862 28.8048 16.3322C28.7299 16.2781 28.6704 16.2068 28.6318 16.1248C28.5656 15.9777 28.5296 15.8196 28.5259 15.6594C28.5259 14.9962 28.5259 14.3276 28.5705 13.659C28.6463 12.7049 28.7953 11.7573 29.0163 10.8242C29.0424 10.6992 29.0914 10.5796 29.1612 10.4712V10.4552Z" fill="#3A3B7B"/>
<path fill-rule="evenodd" clip-rule="evenodd" d="M4.16236 21.9687C4.09656 22.1097 4.07851 22.2668 4.11067 22.4181C4.13206 22.6175 4.17904 22.8136 4.25055 23.002C4.33982 23.2326 4.43972 23.4607 4.5629 23.7419C4.59123 23.8066 4.62083 23.8741 4.65181 23.9452C4.81791 24.326 5.02634 24.8128 5.30435 25.5172C5.38304 25.7174 5.45291 25.9191 5.52328 26.1223C5.5517 26.2043 5.58023 26.2867 5.60943 26.3692C5.7141 26.6627 5.8942 26.9263 6.13293 27.1352C6.2343 27.25 6.36876 27.3337 6.51953 27.3755C6.67325 27.4182 6.83673 27.4155 6.98881 27.3678C7.14089 27.32 7.27446 27.2295 7.37219 27.1079C7.468 26.9886 7.52497 26.8449 7.53604 26.6948C7.5982 26.4024 7.57698 26.0992 7.47454 25.8173C7.31194 25.3492 7.12673 24.8804 6.91315 24.4219L6.91216 24.4199C6.5608 23.7026 6.20364 22.9902 5.82959 22.2775L5.82679 22.2725C5.71729 22.0869 5.57498 21.9209 5.40626 21.782C5.29673 21.6581 5.14565 21.5745 4.9788 21.5457C4.80839 21.5163 4.63265 21.546 4.48293 21.6294C4.3413 21.707 4.22904 21.8258 4.16236 21.9687Z" fill="#3A3B7B"/>
<path fill-rule="evenodd" clip-rule="evenodd" d="M9.52891 20.2023C8.97798 20.0653 8.40261 20.0454 7.8429 20.1438C7.40938 20.1848 6.983 20.2808 6.68693 20.4709C6.53635 20.5676 6.4146 20.6919 6.34688 20.8498C6.27879 21.0086 6.27009 21.1902 6.3259 21.3925C6.42778 21.7631 6.56009 22.1234 6.69193 22.4826L6.71329 22.5407L6.71381 22.542C7.11078 23.5855 7.51154 24.6254 7.91595 25.6617C7.96311 25.825 8.0298 25.9825 8.11467 26.1311L8.11626 26.1339C8.22838 26.3185 8.37219 26.4836 8.54161 26.6223C8.62634 26.6986 8.73112 26.7513 8.84474 26.7749C8.95947 26.7987 9.07879 26.7918 9.1897 26.7549C9.30065 26.7181 9.39889 26.6527 9.47376 26.5659C9.54741 26.4805 9.59565 26.3776 9.61336 26.2682C9.68645 25.9708 9.66304 25.6591 9.5462 25.3748C9.50974 25.2792 9.48114 25.1814 9.451 25.0785C9.44095 25.0442 9.43076 25.0093 9.42001 24.9737C10.3457 24.6264 11.3307 24.1594 11.677 23.0731C11.8127 22.6976 11.824 22.2911 11.7094 21.9092C11.5947 21.5269 11.3594 21.1881 11.0359 20.9393C10.5956 20.5911 10.0812 20.3395 9.52891 20.2023ZM8.0018 21.5348C8.02003 21.5297 8.0384 21.5251 8.05681 21.5207C8.65948 21.4298 9.27606 21.5509 9.79306 21.8618C10.0209 22.0139 10.1142 22.1829 10.1303 22.3454C10.1468 22.5128 10.0834 22.6942 9.95598 22.8686C9.71524 23.198 9.27592 23.4617 8.87909 23.5108C8.58979 22.8714 8.29601 22.2061 8.0018 21.5348Z" fill="#3A3B7B"/>
<path d="M13.2018 19.0318C13.8579 18.741 14.6706 18.6908 15.3066 18.8952C15.4667 18.94 15.6057 19.0369 15.6997 19.1692C15.793 19.3008 15.8361 19.4593 15.8217 19.6177C15.8208 19.7206 15.7945 19.8218 15.745 19.9131C15.6946 20.006 15.6217 20.0859 15.5323 20.1461C15.4429 20.2063 15.3398 20.245 15.2316 20.2588C15.1234 20.2726 15.0133 20.2612 14.9106 20.2256L14.9028 20.2229L14.8955 20.2192C14.8429 20.1928 14.7871 20.1729 14.7294 20.16L14.7258 20.1592C14.2784 20.0452 13.8564 20.2341 13.7023 20.4663C13.6288 20.577 13.6197 20.6888 13.6809 20.7904C13.7465 20.8993 13.9073 21.0215 14.2327 21.1086C14.3222 21.1321 14.4139 21.1549 14.507 21.178C14.7643 21.242 15.0317 21.3084 15.2903 21.4005L15.2913 21.4008C16.4843 21.8365 16.9285 22.7388 16.7765 23.5874C16.626 24.4266 15.8958 25.1904 14.7976 25.3706C14.398 25.4556 13.9822 25.439 13.5912 25.3225C13.1993 25.2057 12.846 24.9925 12.5665 24.704L12.5592 24.6965C12.4709 24.5878 12.4116 24.4601 12.3853 24.3246C12.3611 24.2024 12.3738 24.076 12.422 23.9605C12.4698 23.8456 12.5508 23.7462 12.6552 23.6737C12.7656 23.5916 12.8986 23.5423 13.0378 23.5321C13.1766 23.5218 13.3154 23.5508 13.4373 23.6153C13.559 23.6717 13.6721 23.7437 13.7738 23.8293L13.7757 23.8309C13.9554 23.9886 14.1729 24.0297 14.3814 23.9917C14.593 23.953 14.7919 23.8329 14.9199 23.6735C15.047 23.515 15.0981 23.3269 15.0375 23.1442C14.9766 22.9602 14.7933 22.754 14.3907 22.5816C14.2854 22.5387 14.1763 22.5041 14.0628 22.4705C14.0322 22.4614 14.001 22.4523 13.9695 22.4432C13.8856 22.4187 13.7992 22.3935 13.7145 22.3658C13.6562 22.3467 13.5984 22.3286 13.5411 22.3107C13.3844 22.2617 13.2318 22.214 13.0848 22.15C12.765 22.0455 12.4887 21.8448 12.297 21.5777C12.1046 21.3095 12.0077 20.9888 12.0209 20.6634C12.0219 19.8705 12.5423 19.3242 13.2018 19.0318Z" fill="#3A3B7B"/>
<path d="M21.5196 18.9474C21.3924 18.8877 21.2517 18.8594 21.1103 18.865C20.9688 18.8706 20.831 18.9099 20.7094 18.9794C20.5885 19.0484 20.4872 19.145 20.4147 19.2606C20.3482 19.358 20.3022 19.4669 20.2792 19.5813C20.2563 19.6956 20.2568 19.813 20.2808 19.927C20.3045 20.0736 20.3308 20.2161 20.3567 20.3566C20.3997 20.5891 20.4414 20.8165 20.469 21.0482L20.47 21.0541C20.5328 21.4176 20.5657 21.7852 20.5686 22.1536L20.5689 22.1588C20.5903 22.5567 20.4491 22.9468 20.1755 23.2464L20.1711 23.2517C20.0821 23.3612 19.963 23.4448 19.8273 23.4931C19.6916 23.5414 19.5445 23.5525 19.4026 23.5252C19.2606 23.4978 19.1295 23.4331 19.0236 23.3383C18.9178 23.2435 18.8415 23.1219 18.8034 22.9879C18.7221 22.7054 18.675 22.4149 18.6631 22.1221L18.802 19.9997C18.804 19.972 18.8064 19.9435 18.8088 19.9148C18.814 19.8503 18.8195 19.7847 18.8217 19.7234C18.825 19.6333 18.8222 19.5407 18.8003 19.453C18.7779 19.3633 18.7353 19.278 18.6598 19.2054C18.585 19.1335 18.4841 19.0805 18.3571 19.0444C18.1273 18.9806 17.9331 18.9826 17.7713 19.0485C17.6093 19.1144 17.4984 19.2368 17.4199 19.3782C17.3419 19.5184 17.2919 19.6844 17.254 19.8507C17.2259 19.974 17.2034 20.1035 17.1819 20.2268C17.1745 20.2693 17.1672 20.311 17.1599 20.3515L17.1597 20.3527C17.0449 21.0287 17.0108 21.7152 17.0579 22.3986C17.0667 22.768 17.1469 23.1326 17.2946 23.4738C17.4612 23.914 17.763 24.2954 18.1601 24.5677C18.5581 24.8406 19.0329 24.9909 19.5219 24.9988C20.0109 25.0068 20.4908 24.8719 20.8981 24.6122C21.3048 24.3529 21.62 23.9812 21.802 23.5463C22.0566 22.9923 22.1761 22.3899 22.1515 21.7848C22.1365 21.3431 22.1115 20.898 22.0865 20.4552C22.0743 20.238 22.0621 20.0212 22.0512 19.8057C22.0456 19.5897 21.9714 19.3805 21.8384 19.2061C21.7561 19.0958 21.6466 19.0069 21.5196 18.9474Z" fill="#3A3B7B"/>
<path d="M26.0222 22.2754C26.0093 22.2911 25.9957 22.3074 25.9815 22.3243C25.878 21.7514 25.7821 21.1787 25.6861 20.6051C25.6517 20.3993 25.617 20.1926 25.5822 19.9865L25.5783 19.9635L25.5656 19.9436C25.5416 19.9063 25.5392 19.8696 25.5392 19.7914V19.7824L25.5378 19.7734C25.5118 19.612 25.4357 19.4618 25.3195 19.3424C25.2036 19.2233 25.053 19.1405 24.8874 19.1045C24.7221 19.0654 24.5484 19.074 24.3881 19.1293C24.2283 19.1845 24.089 19.2837 23.9876 19.4145C23.9033 19.5148 23.8341 19.6261 23.7824 19.745C23.6648 20.0012 23.5462 20.258 23.4273 20.5155L23.4253 20.52C23.1285 21.1628 22.8296 21.81 22.5395 22.4623L22.5386 22.4644C22.3605 22.8874 22.2135 23.333 22.067 23.7773C22.0377 23.866 22.0084 23.9546 21.9789 24.043C21.926 24.1832 21.9029 24.3321 21.9109 24.481C21.9012 24.6143 21.9345 24.7472 22.0061 24.8619C22.0792 24.9789 22.1887 25.0709 22.3192 25.1251C22.4574 25.1832 22.612 25.1956 22.7584 25.1602C22.9045 25.1248 23.0342 25.0439 23.1272 24.9301C23.2459 24.7899 23.348 24.6371 23.4313 24.4751C23.6771 23.9926 23.912 23.5042 24.1458 23.0179C24.2363 22.8298 24.3242 22.6613 24.4242 22.4779C24.4311 22.5005 24.4381 22.5225 24.4454 22.5447C24.5502 22.9876 24.7271 23.4119 24.9696 23.8019C25.0155 23.8846 25.0795 23.9568 25.157 24.0136C25.2356 24.0711 25.3262 24.1115 25.4226 24.132C25.519 24.1525 25.6189 24.1526 25.7154 24.1323C25.8117 24.112 25.9026 24.0716 25.9812 24.0143L26.1367 23.9026L27.3436 22.927L27.2722 23.3635C27.1742 23.9635 27.077 24.5585 26.9737 25.1537C26.9061 25.4175 26.9062 25.693 26.974 25.9567C27.0034 26.1052 27.0781 26.2418 27.1888 26.3492C27.3004 26.4575 27.4433 26.5311 27.5991 26.5605C27.7548 26.5898 27.9161 26.5736 28.0621 26.5138C28.2059 26.4549 28.3283 26.3565 28.4138 26.231C28.6128 25.994 28.7367 25.7072 28.7707 25.4045C28.8219 24.9771 28.8798 24.5439 28.9377 24.1108C29.0044 23.6116 29.0711 23.1126 29.1274 22.6231L29.1276 22.6216C29.1818 22.0858 29.208 21.5478 29.2062 21.0095C29.218 20.8394 29.1739 20.6699 29.0799 20.5251C28.9855 20.3797 28.8458 20.2667 28.6806 20.2021C28.5088 20.1271 28.3165 20.1071 28.1319 20.145C27.9486 20.1826 27.7826 20.2753 27.6581 20.4097C27.4355 20.6073 27.2267 20.8188 27.033 21.0427L27.0317 21.0442C26.8202 21.2971 26.6102 21.555 26.4015 21.8112C26.2746 21.967 26.1481 22.1224 26.0222 22.2754Z" fill="#3A3B7B"/>
</g>
<defs>
<clipPath id="clip0_1_2716">
<rect width="32.7153" height="20.186" fill="white" transform="translate(1.16048 7.21968)"/>
</clipPath>
</defs>
</svg>
